<svg xmlns="http://www.w3.org/2000/svg" viewBox="0 0 478.06 320.39"><defs><style>.cls-1{fill:#c1e5df;}.cls-2{fill:none;}.cls-3{fill:#ffb6ad;}.cls-4{fill:#efe5a0;}.cls-5{fill:#fff;}</style></defs><title>LOGO</title><g id="Layer_1" data-name="Layer 1"><polyline class="cls-1" points="75.97 82.29 164.33 256.39 126.87 255.04 19.17 44.52 60.45 44.52"/><path class="cls-2" d="M25.87,157.29H210.68a1.08,1.08,0,0,1,.93.59,1.29,1.29,0,0,1,0,1.18l-18.72,35.71a1,1,0,0,1-.91.59l-107.48,2,90.8,173.46a1.3,1.3,0,0,1,0,1.21,1,1,0,0,1-1,.56l-40.8-2.46a1.06,1.06,0,0,1-.88-.59L24.93,159.05a1.32,1.32,0,0,1,0-1.18,1.06,1.06,0,0,1,.93-.58Zm183,2.36H27.7L134.21,367.84l38.24,2.31L81.73,196.83a1.27,1.27,0,0,1,0-1.17,1,1,0,0,1,.91-.6L191.34,193l17.48-33.36Z" transform="translate(-6.69 -115.13)"/><polygon class="cls-3" points="19.15 43.34 34.22 5.64 255.8 9.45 165.65 185.31 147.26 149.6 200.14 43.76 19.15 43.34"/><path class="cls-3" d="M40.92,119.59h0l221.58,3.81a1,1,0,0,1,.9.6,1.28,1.28,0,0,1,0,1.16L173.26,301a1,1,0,0,1-.92.6,1.16,1.16,0,0,1-.91-.59l-18.38-35.71a1.3,1.3,0,0,1,0-1.17l52-104.08-179.19-.42a1,1,0,0,1-.93-.62,1.33,1.33,0,0,1,0-1.21L40,120.12a1,1,0,0,1,.88-.53Zm219.77,6.13L41.48,122,27.79,157.29l179.05.42a1,1,0,0,1,.9.58,1.29,1.29,0,0,1,0,1.18L155.17,264.72l17.17,33.35,88.35-172.35Z" transform="translate(-6.69 -115.13)"/><path class="cls-2" d="M261.49,123.4h0a1,1,0,0,1,.91.65l18.15,40.16a1.28,1.28,0,0,1,0,1.13L171.66,372.05a1,1,0,0,1-.9.58h0a1,1,0,0,1-.9-.59L78.6,196.46a1.29,1.29,0,0,1,0-1.18c.19-.37-14.31-37.9-13.93-37.9l38.33.09c.37,0,14,37.43,14.19,37.79l54,102.09L260.58,124a1,1,0,0,1,.91-.59Zm16.95,41.3-17-37.64L172.15,300.28a1,1,0,0,1-.91.59,1,1,0,0,1-.91-.58L115.68,197.05H81.34l89.42,172.06L278.44,164.7Z" transform="translate(-6.69 -115.13)"/><polygon class="cls-4" points="256.71 8.87 273.21 49.68 164.33 256.39 56.76 44.59 72.2 5.01 164.8 184.63 256.71 8.87"/><polygon class="cls-5" points="146.77 151.01 217.31 4.46 69.64 0 146.77 151.01"/><polygon class="cls-1" points="477.01 226.08 462.56 263.79 240.37 259.98 330.51 84.11 348.9 119.83 296.02 225.66 477.01 226.08"/><path class="cls-1" d="M469.25,380.1h0L247,376.29a1,1,0,0,1-.89-.6,1.27,1.27,0,0,1,0-1.17L336.3,198.66a1,1,0,0,1,.91-.6,1.15,1.15,0,0,1,.91.6l18.39,35.7a1.33,1.33,0,0,1,0,1.17l-52,104.08,179.2.42a1,1,0,0,1,.92.62,1.33,1.33,0,0,1,0,1.21l-14.46,37.7a1,1,0,0,1-.88.54ZM248.86,374l219.83,3.76,13.07-35.33-179-.41a1.06,1.06,0,0,1-.91-.59,1.3,1.3,0,0,1,0-1.17L354.38,235l-17.17-33.35L248.86,374Z" transform="translate(-6.69 -115.13)"/><path class="cls-2" d="M248.06,376.29h0a1.06,1.06,0,0,1-.91-.65L229,335.47a1.28,1.28,0,0,1,0-1.13l108.88-206.7a1,1,0,0,1,.9-.58h0a1,1,0,0,1,.9.58L431,303.22a1.29,1.29,0,0,1,0,1.18c-.19.37,14.31,37.9,13.93,37.9l-38.33-.09c-.37,0-14-37.43-14.19-37.79l-54-102.09L249,375.69a1,1,0,0,1-.91.6ZM231.11,335l17,37.64L337.4,199.4a1.07,1.07,0,0,1,.91-.59,1,1,0,0,1,.91.58l54.65,103.25h34.34L338.79,130.57,231.11,335Z" transform="translate(-6.69 -115.13)"/><polygon class="cls-4" points="239.45 260.56 222.96 219.74 331.84 13.03 439.41 224.83 424.27 264.42 331.36 84.79 239.45 260.56"/><polyline class="cls-3" points="420.2 187.13 331.84 13.03 369.29 14.39 476.99 224.9 439.41 224.83"/><path class="cls-2" d="M483.69,342.39H298.87a1,1,0,0,1-.92-.59,1.24,1.24,0,0,1,0-1.18l18.71-35.71a1.06,1.06,0,0,1,.91-.59l107.49-2L334.25,128.83a1.3,1.3,0,0,1,0-1.21,1,1,0,0,1,1-.56l40.8,2.46a1.07,1.07,0,0,1,.88.6l107.7,210.51a1.29,1.29,0,0,1,0,1.18,1,1,0,0,1-.92.58Zm-183-2.36H481.85L375.34,131.84l-38.24-2.31,90.72,173.32a1.27,1.27,0,0,1,0,1.17,1,1,0,0,1-.91.6l-108.7,2.05L300.73,340Z" transform="translate(-6.69 -115.13)"/><polygon class="cls-5" points="349.4 118.41 278.86 264.96 426.52 269.42 349.4 118.41"/><polygon class="cls-2" points="384.59 185.31 277.43 185.31 293.65 153.66 367.5 153.87 384.59 185.31"/></g><g id="Layer_2" data-name="Layer 2"><path class="cls-5" d="M7.77,427.92a402.18,402.18,0,0,0,56.68,7.6c1.93.12,1.92-2.88,0-3A395.45,395.45,0,0,1,8.57,425c-1.88-.39-2.69,2.5-.8,2.9Z" transform="translate(-6.69 -115.13)"/></g></svg>